<?xml version="1.0" encoding="utf-8"?>
<!-- Generator: Adobe Illustrator 21.0.0, SVG Export Plug-In . SVG Version: 6.00 Build 0)  -->
<svg version="1.1" id="Layer_1" xmlns="http://www.w3.org/2000/svg" xmlns:xlink="http://www.w3.org/1999/xlink" x="0px" y="0px"
	 viewBox="0 0 113.6 112.2" style="enable-background:new 0 0 113.6 112.2;" xml:space="preserve">
<style type="text/css">
	.st0{fill:#E6E7E8;}
	.st1{fill:#547DBF;}
	.st2{fill:#32A850;}
	.st3{fill:#F7BC17;}
	.st4{fill:#EA4435;}
	.st5{fill:#F1F2F2;}
</style>
<g>
	<g>
		<path class="st0" d="M36.9,52.8L19.4,70.6V89H17V0h2.4v66.8L58.9,27h3.4L38.6,51l27.2,38H63L36.9,52.8z"/>
		<path class="st0" d="M51.9,112.2c-4.4-0.1-8.6-1.7-12.2-4.4l1.4-1.9c3.1,2.5,7,3.8,10.8,4c7.6,0.1,11.5-5.8,11.5-17V27h2.4v65.8
			C65.8,105.7,61,112.3,51.9,112.2z M67.8,9.1c0,1.7-1.4,3.1-3.1,3.1c-1.7,0-3.1-1.4-3.1-3.1C61.5,7.4,63,6,64.6,6
			C66.3,6,67.8,7.4,67.8,9.1z"/>
		<path class="st0" d="M111.2,89l-0.1-14c-5.5,9.7-14.9,14-26,14c-12,0-20.2-7.6-20.2-17.9c0-10.1,8.9-16,23-16h23v-7.6
			c-0.1-11.4-6.6-18.2-19.7-18.2c-8.3,0-15,3.4-21.7,8.6l-1.4-1.9c7-5.5,14.4-9.1,23.2-9.1c14.3,0,22,8,22.1,20.6l0.2,41.4H111.2z
			 M111.1,69.6l-0.1-12h-23c-13.2,0-20.6,4.9-20.6,13.6c0,9.1,7,15.5,17.9,15.5C97.2,86.6,106.2,81.8,111.1,69.6z"/>
	</g>
	<g>
		<path class="st1" d="M19.9,52.8L2.4,70.6V89H0V0h2.4v66.8L41.9,27h3.4L21.6,51l27.2,38H46L19.9,52.8z"/>
		<path class="st1" d="M34.9,112.2c-4.4-0.1-8.6-1.7-12.2-4.4l1.4-1.9c3.1,2.5,7,3.8,10.8,4c7.6,0.1,11.5-5.8,11.5-17V27h2.4v65.8
			C48.8,105.7,44,112.3,34.9,112.2z M50.8,9.1c0,1.7-1.4,3.1-3.1,3.1c-1.7,0-3.1-1.4-3.1-3.1C44.5,7.4,46,6,47.6,6
			C49.3,6,50.8,7.4,50.8,9.1z"/>
		<path class="st1" d="M94.2,89l-0.1-14c-5.5,9.7-14.9,14-26,14c-12,0-20.2-7.6-20.2-17.9c0-10.1,8.9-16,23-16h23v-7.6
			c-0.1-11.4-6.6-18.2-19.7-18.2c-8.3,0-15,3.4-21.7,8.6l-1.4-1.9c7-5.5,14.4-9.1,23.2-9.1c14.3,0,22,8,22.1,20.6L96.6,89H94.2z
			 M94.1,69.6l-0.1-12h-23c-13.2,0-20.6,4.9-20.6,13.6c0,9.1,7,15.5,17.9,15.5C80.2,86.6,89.2,81.8,94.1,69.6z"/>
	</g>
	<g>
		<path class="st2" d="M24.2,52.8L6.7,70.6V89H4.3V0h2.4v66.8L46.1,27h3.4L25.9,51l27.2,38h-2.9L24.2,52.8z"/>
		<path class="st2" d="M39.2,112.2c-4.4-0.1-8.6-1.7-12.2-4.4l1.4-1.9c3.1,2.5,7,3.8,10.8,4c7.6,0.1,11.5-5.8,11.5-17V27h2.4v65.8
			C53.1,105.7,48.3,112.3,39.2,112.2z M55,9.1c0,1.7-1.4,3.1-3.1,3.1c-1.7,0-3.1-1.4-3.1-3.1c0-1.7,1.4-3.1,3.1-3.1
			C53.6,6,55,7.4,55,9.1z"/>
		<path class="st2" d="M98.4,89l-0.1-14c-5.5,9.7-14.9,14-26,14c-12,0-20.2-7.6-20.2-17.9c0-10.1,8.9-16,23-16h23v-7.6
			c-0.1-11.4-6.6-18.2-19.7-18.2c-8.3,0-15,3.4-21.7,8.6l-1.4-1.9c7-5.5,14.4-9.1,23.2-9.1c14.3,0,22,8,22.1,20.6l0.2,41.4H98.4z
			 M98.3,69.6l-0.1-12h-23c-13.2,0-20.6,4.9-20.6,13.6c0,9.1,7,15.5,17.9,15.5C84.4,86.6,93.4,81.8,98.3,69.6z"/>
	</g>
	<g>
		<path class="st3" d="M28.4,52.8L10.9,70.6V89H8.5V0h2.4v66.8L50.4,27h3.4L30.1,51l27.2,38h-2.9L28.4,52.8z"/>
		<path class="st3" d="M43.4,112.2c-4.4-0.1-8.6-1.7-12.2-4.4l1.4-1.9c3.1,2.5,7,3.8,10.8,4c7.6,0.1,11.5-5.8,11.5-17V27h2.4v65.8
			C57.3,105.7,52.5,112.3,43.4,112.2z M59.3,9.1c0,1.7-1.4,3.1-3.1,3.1c-1.7,0-3.1-1.4-3.1-3.1C53,7.4,54.5,6,56.1,6
			C57.8,6,59.3,7.4,59.3,9.1z"/>
		<path class="st3" d="M102.7,89l-0.1-14c-5.5,9.7-14.9,14-26,14c-12,0-20.2-7.6-20.2-17.9c0-10.1,8.9-16,23-16h23v-7.6
			c-0.1-11.4-6.6-18.2-19.7-18.2c-8.3,0-15,3.4-21.7,8.6l-1.4-1.9c7-5.5,14.4-9.1,23.2-9.1c14.3,0,22,8,22.1,20.6l0.2,41.4H102.7z
			 M102.6,69.6l-0.1-12h-23c-13.2,0-20.6,4.9-20.6,13.6c0,9.1,7,15.5,17.9,15.5C88.7,86.6,97.7,81.8,102.6,69.6z"/>
	</g>
	<g>
		<path class="st4" d="M32.7,52.8L15.2,70.6V89h-2.4V0h2.4v66.8L54.6,27H58L34.4,51l27.2,38h-2.9L32.7,52.8z"/>
		<path class="st4" d="M47.7,112.2c-4.4-0.1-8.6-1.7-12.2-4.4l1.4-1.9c3.1,2.5,7,3.8,10.8,4c7.6,0.1,11.5-5.8,11.5-17V27h2.4v65.8
			C61.6,105.7,56.8,112.3,47.7,112.2z M63.5,9.1c0,1.7-1.4,3.1-3.1,3.1c-1.7,0-3.1-1.4-3.1-3.1c0-1.7,1.4-3.1,3.1-3.1
			C62.1,6,63.5,7.4,63.5,9.1z"/>
		<path class="st4" d="M107,89l-0.1-14c-5.5,9.7-14.9,14-26,14c-12,0-20.2-7.6-20.2-17.9c0-10.1,8.9-16,23-16h23v-7.6
			c-0.1-11.4-6.6-18.2-19.7-18.2c-8.3,0-15,3.4-21.7,8.6l-1.4-1.9c7-5.5,14.4-9.1,23.2-9.1c14.3,0,22,8,22.1,20.6l0.2,41.4H107z
			 M106.8,69.6l-0.1-12h-23C70.5,57.6,63,62.5,63,71.2c0,9.1,7,15.5,17.9,15.5C92.9,86.6,101.9,81.8,106.8,69.6z"/>
	</g>
	<g>
		<path class="st5" d="M36.9,52.8L19.4,70.6V89H17V0h2.4v66.8L58.9,27h3.4L38.6,51l27.2,38H63L36.9,52.8z"/>
		<path class="st5" d="M51.9,112.2c-4.4-0.1-8.6-1.7-12.2-4.4l1.4-1.9c3.1,2.5,7,3.8,10.8,4c7.6,0.1,11.5-5.8,11.5-17V27h2.4v65.8
			C65.8,105.7,61,112.3,51.9,112.2z M67.8,9.1c0,1.7-1.4,3.1-3.1,3.1c-1.7,0-3.1-1.4-3.1-3.1C61.5,7.4,63,6,64.6,6
			C66.3,6,67.8,7.4,67.8,9.1z"/>
		<path class="st5" d="M111.2,89l-0.1-14c-5.5,9.7-14.9,14-26,14c-12,0-20.2-7.6-20.2-17.9c0-10.1,8.9-16,23-16h23v-7.6
			c-0.1-11.4-6.6-18.2-19.7-18.2c-8.3,0-15,3.4-21.7,8.6l-1.4-1.9c7-5.5,14.4-9.1,23.2-9.1c14.3,0,22,8,22.1,20.6l0.2,41.4H111.2z
			 M111.1,69.6l-0.1-12h-23c-13.2,0-20.6,4.9-20.6,13.6c0,9.1,7,15.5,17.9,15.5C97.2,86.6,106.2,81.8,111.1,69.6z"/>
	</g>
</g>
</svg>
