<svg enable-background="new 0 0 113.6 112.2" viewBox="0 0 113.6 112.2" xmlns="http://www.w3.org/2000/svg"><g fill="#e6e7e8"><path d="m36.9 52.8-17.5 17.8v18.4h-2.4v-89h2.4v66.8l39.5-39.8h3.4l-23.7 24 27.2 38h-2.8z"/><path d="m51.9 112.2c-4.4-.1-8.6-1.7-12.2-4.4l1.4-1.9c3.1 2.5 7 3.8 10.8 4 7.6.1 11.5-5.8 11.5-17v-65.9h2.4v65.8c0 12.9-4.8 19.5-13.9 19.4zm15.9-103.1c0 1.7-1.4 3.1-3.1 3.1s-3.1-1.4-3.1-3.1c-.1-1.7 1.4-3.1 3-3.1 1.7 0 3.2 1.4 3.2 3.1z"/><path d="m111.2 89-.1-14c-5.5 9.7-14.9 14-26 14-12 0-20.2-7.6-20.2-17.9 0-10.1 8.9-16 23-16h23v-7.6c-.1-11.4-6.6-18.2-19.7-18.2-8.3 0-15 3.4-21.7 8.6l-1.4-1.9c7-5.5 14.4-9.1 23.2-9.1 14.3 0 22 8 22.1 20.6l.2 41.4h-2.4zm-.1-19.4-.1-12h-23c-13.2 0-20.6 4.9-20.6 13.6 0 9.1 7 15.5 17.9 15.5 11.9-.1 20.9-4.9 25.8-17.1z"/></g><path d="m19.9 52.8-17.5 17.8v18.4h-2.4v-89h2.4v66.8l39.5-39.8h3.4l-23.7 24 27.2 38h-2.8z" fill="#547dbf"/><path d="m34.9 112.2c-4.4-.1-8.6-1.7-12.2-4.4l1.4-1.9c3.1 2.5 7 3.8 10.8 4 7.6.1 11.5-5.8 11.5-17v-65.9h2.4v65.8c0 12.9-4.8 19.5-13.9 19.4zm15.9-103.1c0 1.7-1.4 3.1-3.1 3.1s-3.1-1.4-3.1-3.1c-.1-1.7 1.4-3.1 3-3.1 1.7 0 3.2 1.4 3.2 3.1z" fill="#547dbf"/><path d="m94.2 89-.1-14c-5.5 9.7-14.9 14-26 14-12 0-20.2-7.6-20.2-17.9 0-10.1 8.9-16 23-16h23v-7.6c-.1-11.4-6.6-18.2-19.7-18.2-8.3 0-15 3.4-21.7 8.6l-1.4-1.9c7-5.5 14.4-9.1 23.2-9.1 14.3 0 22 8 22.1 20.6l.2 41.5zm-.1-19.4-.1-12h-23c-13.2 0-20.6 4.9-20.6 13.6 0 9.1 7 15.5 17.9 15.5 11.9-.1 20.9-4.9 25.8-17.1z" fill="#547dbf"/><path d="m24.2 52.8-17.5 17.8v18.4h-2.4v-89h2.4v66.8l39.4-39.8h3.4l-23.6 24 27.2 38h-2.9z" fill="#32a850"/><path d="m39.2 112.2c-4.4-.1-8.6-1.7-12.2-4.4l1.4-1.9c3.1 2.5 7 3.8 10.8 4 7.6.1 11.5-5.8 11.5-17v-65.9h2.4v65.8c0 12.9-4.8 19.5-13.9 19.4zm15.8-103.1c0 1.7-1.4 3.1-3.1 3.1s-3.1-1.4-3.1-3.1 1.4-3.1 3.1-3.1 3.1 1.4 3.1 3.1z" fill="#32a850"/><path d="m98.4 89-.1-14c-5.5 9.7-14.9 14-26 14-12 0-20.2-7.6-20.2-17.9 0-10.1 8.9-16 23-16h23v-7.6c-.1-11.4-6.6-18.2-19.7-18.2-8.3 0-15 3.4-21.7 8.6l-1.4-1.9c7-5.5 14.4-9.1 23.2-9.1 14.3 0 22 8 22.1 20.6l.2 41.4h-2.4zm-.1-19.4-.1-12h-23c-13.2 0-20.6 4.9-20.6 13.6 0 9.1 7 15.5 17.9 15.5 11.9-.1 20.9-4.9 25.8-17.1z" fill="#32a850"/><path d="m28.4 52.8-17.5 17.8v18.4h-2.4v-89h2.4v66.8l39.5-39.8h3.4l-23.7 24 27.2 38h-2.9z" fill="#f7bc17"/><path d="m43.4 112.2c-4.4-.1-8.6-1.7-12.2-4.4l1.4-1.9c3.1 2.5 7 3.8 10.8 4 7.6.1 11.5-5.8 11.5-17v-65.9h2.4v65.8c0 12.9-4.8 19.5-13.9 19.4zm15.9-103.1c0 1.7-1.4 3.1-3.1 3.1s-3.1-1.4-3.1-3.1c-.1-1.7 1.4-3.1 3-3.1 1.7 0 3.2 1.4 3.2 3.1z" fill="#f7bc17"/><path d="m102.7 89-.1-14c-5.5 9.7-14.9 14-26 14-12 0-20.2-7.6-20.2-17.9 0-10.1 8.9-16 23-16h23v-7.6c-.1-11.4-6.6-18.2-19.7-18.2-8.3 0-15 3.4-21.7 8.6l-1.4-1.9c7-5.5 14.4-9.1 23.2-9.1 14.3 0 22 8 22.1 20.6l.2 41.4h-2.4zm-.1-19.4-.1-12h-23c-13.2 0-20.6 4.9-20.6 13.6 0 9.1 7 15.5 17.9 15.5 11.9-.1 20.9-4.9 25.8-17.1z" fill="#f7bc17"/><path d="m32.7 52.8-17.5 17.8v18.4h-2.4v-89h2.4v66.8l39.4-39.8h3.4l-23.6 24 27.2 38h-2.9z" fill="#ea4435"/><path d="m47.7 112.2c-4.4-.1-8.6-1.7-12.2-4.4l1.4-1.9c3.1 2.5 7 3.8 10.8 4 7.6.1 11.5-5.8 11.5-17v-65.9h2.4v65.8c0 12.9-4.8 19.5-13.9 19.4zm15.8-103.1c0 1.7-1.4 3.1-3.1 3.1s-3.1-1.4-3.1-3.1 1.4-3.1 3.1-3.1 3.1 1.4 3.1 3.1z" fill="#ea4435"/><path d="m107 89-.1-14c-5.5 9.7-14.9 14-26 14-12 0-20.2-7.6-20.2-17.9 0-10.1 8.9-16 23-16h23v-7.6c-.1-11.4-6.6-18.2-19.7-18.2-8.3 0-15 3.4-21.7 8.6l-1.4-1.9c7-5.5 14.4-9.1 23.2-9.1 14.3 0 22 8 22.1 20.6l.2 41.4h-2.4zm-.2-19.4-.1-12h-23c-13.2 0-20.7 4.9-20.7 13.6 0 9.1 7 15.5 17.9 15.5 12-.1 21-4.9 25.9-17.1z" fill="#ea4435"/><path d="m36.9 52.8-17.5 17.8v18.4h-2.4v-89h2.4v66.8l39.5-39.8h3.4l-23.7 24 27.2 38h-2.8z" fill="#f1f2f2"/><path d="m51.9 112.2c-4.4-.1-8.6-1.7-12.2-4.4l1.4-1.9c3.1 2.5 7 3.8 10.8 4 7.6.1 11.5-5.8 11.5-17v-65.9h2.4v65.8c0 12.9-4.8 19.5-13.9 19.4zm15.9-103.1c0 1.7-1.4 3.1-3.1 3.1s-3.1-1.4-3.1-3.1c-.1-1.7 1.4-3.1 3-3.1 1.7 0 3.2 1.4 3.2 3.1z" fill="#f1f2f2"/><path d="m111.2 89-.1-14c-5.5 9.7-14.9 14-26 14-12 0-20.2-7.6-20.2-17.9 0-10.1 8.9-16 23-16h23v-7.6c-.1-11.4-6.6-18.2-19.7-18.2-8.3 0-15 3.4-21.7 8.6l-1.4-1.9c7-5.5 14.4-9.1 23.2-9.1 14.3 0 22 8 22.1 20.6l.2 41.4h-2.4zm-.1-19.4-.1-12h-23c-13.2 0-20.6 4.9-20.6 13.6 0 9.1 7 15.5 17.9 15.5 11.9-.1 20.9-4.9 25.8-17.1z" fill="#f1f2f2"/></svg>