<?xml version="1.0" encoding="utf-8"?>
<!-- Generator: Adobe Illustrator 16.0.4, SVG Export Plug-In . SVG Version: 6.00 Build 0)  -->
<!DOCTYPE svg PUBLIC "-//W3C//DTD SVG 1.1//EN" "http://www.w3.org/Graphics/SVG/1.1/DTD/svg11.dtd">
<svg version="1.1" id="Layer_1" xmlns="http://www.w3.org/2000/svg" xmlns:xlink="http://www.w3.org/1999/xlink" x="0px" y="0px"
	 width="334.145px" height="181.871px" viewBox="0 0 334.145 181.871" enable-background="new 0 0 334.145 181.871"
	 xml:space="preserve">
<g enable-background="new    ">
	<path fill="#1F2B3D" d="M88.76,123.802v-11.866l34.125-6.008v16.307c0.082,8.828,2.41,15.468,6.982,19.922
		c4.57,4.455,10.598,6.682,18.078,6.682c7.397,0,13.258-2.348,17.58-7.049c4.322-4.699,6.483-10.973,6.483-18.818V0h35.375v122.868
		c0,10.7-2.44,20.499-7.319,29.399c-4.881,8.901-11.867,16.028-20.961,21.377c-9.095,5.348-19.396,8.022-30.908,8.022
		c-17.937,0-32.326-5.281-43.17-15.842C94.182,155.264,88.76,141.255,88.76,123.802z"/>
	<g>
		<polygon fill="none" points="218.77,108.121 268.895,108.121 243.77,39.495 		"/>
		<path fill="none" d="M154.564,181.431l0.02-0.05c-0.017,0.001-0.034,0.003-0.052,0.005L154.564,181.431z"/>
		<path fill="#1F2B3D" d="M154.532,181.386c-2.07,0.188-4.182,0.281-6.337,0.281c-17.936,0-32.326-5.281-43.17-15.842
			c-10.843-10.562-16.265-24.57-16.265-42.023v-11.866l14.75-2.597L82.375,79.495l72-79.125H108L35.375,82.495V0.37H0v181.5h35.375
			v-50.375l22.5-24.875l52.75,75.25h43.771l0.168-0.439L154.532,181.386z"/>
		<path fill="#1F2B3D" d="M265.02,0.371h-40.875l-16.761,43.614v78.883c0,10.7-2.44,20.499-7.319,29.399
			c-4.881,8.901-11.867,16.028-20.961,21.377c-7.378,4.338-15.551,6.917-24.52,7.736l-0.02,0.05l0.311,0.439h-0.479l0,0.001h37.375
			l15.125-41.5h73.75l15.125,41.5h38.375L265.02,0.371z M218.77,108.121l25-68.626l25.125,68.626H218.77z"/>
		<polygon fill="#1F2B3D" points="154.564,181.431 154.396,181.87 154.875,181.87 		"/>
		<path fill="#1F2B3D" d="M154.583,181.381l52.8-137.396V0h-35.375v122.971c0,7.846-2.161,14.119-6.484,18.818
			c-4.322,4.701-10.182,7.049-17.58,7.049c-7.48,0-13.508-2.227-18.078-6.682c-4.572-4.454-6.9-11.094-6.982-19.922v-16.307
			l-19.375,3.411l51.022,72.047C154.549,181.384,154.566,181.382,154.583,181.381z"/>
		<g>
			<path fill="#384F6B" d="M88.76,123.802c0,17.453,5.422,31.462,16.265,42.023c10.844,10.561,25.234,15.842,43.17,15.842
				c2.155,0,4.267-0.094,6.337-0.281l-51.022-72.047l-14.75,2.597V123.802z"/>
			<path fill="#384F6B" d="M179.104,173.645c9.094-5.349,16.08-12.476,20.961-21.377c4.879-8.9,7.319-18.699,7.319-29.399V43.985
				l-52.8,137.396C163.552,180.562,171.726,177.982,179.104,173.645z"/>
		</g>
	</g>
</g>
</svg>
