<?xml version="1.0" encoding="utf-8"?>
<!-- Generator: Adobe Illustrator 21.0.0, SVG Export Plug-In . SVG Version: 6.00 Build 0)  -->
<svg version="1.1" id="Layer_1" xmlns="http://www.w3.org/2000/svg" xmlns:xlink="http://www.w3.org/1999/xlink" x="0px" y="0px"
	 viewBox="0 0 134.4 83.9" style="enable-background:new 0 0 134.4 83.9;" xml:space="preserve">
<style type="text/css">
	.st0{fill:#E6E7E8;}
	.st1{fill:#547DBF;}
	.st2{fill:#32A850;}
	.st3{fill:#F7BC17;}
	.st4{fill:#EA4435;}
	.st5{fill:#F1F2F2;}
</style>
<g>
	<g>
		<path class="st0" d="M75.2,83.9l-36-44.4L19.4,61v22.9H17V0h2.4v57.5L72.4,0h3.4L40.9,37.7l37.6,46.2H75.2z"/>
		<path class="st0" d="M119.8,58.3H69L57.3,83.9h-2.9L92.8,0h2.6l38.9,83.9h-2.8L119.8,58.3z M118.6,55.9L94.2,2.8L70,55.9H118.6z"
			/>
	</g>
	<g>
		<path class="st1" d="M58.2,83.9l-36-44.4L2.4,61v22.9H0V0h2.4v57.5L55.4,0h3.4L23.9,37.7l37.6,46.2H58.2z"/>
		<path class="st1" d="M102.8,58.3H52L40.3,83.9h-2.9L75.8,0h2.6l38.9,83.9h-2.8L102.8,58.3z M101.6,55.9L77.2,2.8L53,55.9H101.6z"
			/>
	</g>
	<g>
		<path class="st2" d="M62.4,83.9l-36-44.4L6.7,61v22.9H4.3V0h2.4v57.5L59.7,0H63L28.1,37.7l37.6,46.2H62.4z"/>
		<path class="st2" d="M107.1,58.3H56.2L44.6,83.9h-2.9L80.1,0h2.6l38.9,83.9h-2.8L107.1,58.3z M105.9,55.9L81.4,2.8L57.3,55.9
			H105.9z"/>
	</g>
	<g>
		<path class="st3" d="M66.7,83.9l-36-44.4L10.9,61v22.9H8.5V0h2.4v57.5L63.9,0h3.4L32.4,37.7l37.6,46.2H66.7z"/>
		<path class="st3" d="M111.3,58.3H60.5L48.8,83.9h-2.9L84.3,0H87l38.9,83.9h-2.8L111.3,58.3z M110.1,55.9L85.7,2.8L61.5,55.9H110.1
			z"/>
	</g>
	<g>
		<path class="st4" d="M71,83.9L35,39.5L15.2,61v22.9h-2.4V0h2.4v57.5L68.2,0h3.4L36.6,37.7l37.6,46.2H71z"/>
		<path class="st4" d="M115.6,58.3H64.7L53.1,83.9h-2.9L88.6,0h2.6l38.9,83.9h-2.8L115.6,58.3z M114.4,55.9L89.9,2.8L65.8,55.9
			H114.4z"/>
	</g>
	<g>
		<path class="st5" d="M75.2,83.9l-36-44.4L19.4,61v22.9H17V0h2.4v57.5L72.4,0h3.4L40.9,37.7l37.6,46.2H75.2z"/>
		<path class="st5" d="M119.8,58.3H69L57.3,83.9h-2.9L92.8,0h2.6l38.9,83.9h-2.8L119.8,58.3z M118.6,55.9L94.2,2.8L70,55.9H118.6z"
			/>
	</g>
</g>
</svg>
