<svg enable-background="new 0 0 134.4 83.9" viewBox="0 0 134.4 83.9" xmlns="http://www.w3.org/2000/svg"><path d="m75.2 83.9-36-44.4-19.8 21.5v22.9h-2.4v-83.9h2.4v57.5l53-57.5h3.4l-34.9 37.7 37.6 46.2z" fill="#e6e7e8"/><path d="m119.8 58.3h-50.8l-11.7 25.6h-2.9l38.4-83.9h2.6l38.9 83.9h-2.8zm-1.2-2.4-24.4-53.1-24.2 53.1z" fill="#e6e7e8"/><path d="m58.2 83.9-36-44.4-19.8 21.5v22.9h-2.4v-83.9h2.4v57.5l53-57.5h3.4l-34.9 37.7 37.6 46.2z" fill="#547dbf"/><path d="m102.8 58.3h-50.8l-11.7 25.6h-2.9l38.4-83.9h2.6l38.9 83.9h-2.8zm-1.2-2.4-24.4-53.1-24.2 53.1z" fill="#547dbf"/><path d="m62.4 83.9-36-44.4-19.7 21.5v22.9h-2.4v-83.9h2.4v57.5l53-57.5h3.3l-34.9 37.7 37.6 46.2z" fill="#32a850"/><path d="m107.1 58.3h-50.9l-11.6 25.6h-2.9l38.4-83.9h2.6l38.9 83.9h-2.8zm-1.2-2.4-24.5-53.1-24.1 53.1z" fill="#32a850"/><path d="m66.7 83.9-36-44.4-19.8 21.5v22.9h-2.4v-83.9h2.4v57.5l53-57.5h3.4l-34.9 37.7 37.6 46.2z" fill="#f7bc17"/><path d="m111.3 58.3h-50.8l-11.7 25.6h-2.9l38.4-83.9h2.7l38.9 83.9h-2.8zm-1.2-2.4-24.4-53.1-24.2 53.1z" fill="#f7bc17"/><path d="m71 83.9-36-44.4-19.8 21.5v22.9h-2.4v-83.9h2.4v57.5l53-57.5h3.4l-35 37.7 37.6 46.2z" fill="#ea4435"/><path d="m115.6 58.3h-50.9l-11.6 25.6h-2.9l38.4-83.9h2.6l38.9 83.9h-2.8zm-1.2-2.4-24.5-53.1-24.1 53.1z" fill="#ea4435"/><path d="m75.2 83.9-36-44.4-19.8 21.5v22.9h-2.4v-83.9h2.4v57.5l53-57.5h3.4l-34.9 37.7 37.6 46.2z" fill="#f1f2f2"/><path d="m119.8 58.3h-50.8l-11.7 25.6h-2.9l38.4-83.9h2.6l38.9 83.9h-2.8zm-1.2-2.4-24.4-53.1-24.2 53.1z" fill="#f1f2f2"/></svg>