<?xml version="1.0" encoding="utf-8"?>
<!-- Generator: Adobe Illustrator 16.0.0, SVG Export Plug-In . SVG Version: 6.00 Build 0)  -->
<!DOCTYPE svg PUBLIC "-//W3C//DTD SVG 1.1//EN" "http://www.w3.org/Graphics/SVG/1.1/DTD/svg11.dtd">
<svg version="1.1" id="Layer_1" xmlns="http://www.w3.org/2000/svg" xmlns:xlink="http://www.w3.org/1999/xlink" x="0px" y="0px"
	 width="145.383px" height="51.2px" viewBox="0 5.338 145.383 51.2" enable-background="new 0 5.338 145.383 51.2"
	 xml:space="preserve">
<g>
	<g>
		<g>
			<g>
				<g>
					<defs>
						<path id="SVGID_1_" d="M1.789,6.233C0.805,5.741,0,6.238,0,7.338v47.2c0,1.1,0.805,1.598,1.789,1.104l22.021-11.011
							c0.984-0.492,1.789-1.795,1.789-2.896V33.43c0-1.1,0-2.899,0-4v-9.292c0-1.1-0.805-2.402-1.789-2.895L1.789,6.233z"/>
					</defs>
					<clipPath id="SVGID_2_">
						<use xlink:href="#SVGID_1_"  overflow="visible"/>
					</clipPath>
					<g clip-path="url(#SVGID_2_)">
						<g>
							<g>
								<path id="j" fill="#C6C6C5" d="M12.266,39l6.562,2.812l6.273,2.174l0.498-0.248c0-2.088,0-4.174,0-6.262
									c0-2.017,0-4.031,0-6.046c0-2.252,0-4.505,0-6.757c0-2.178,0-4.356,0-6.535c-1.486,0.743,0,0,0,0l-0.673-0.337l-15.616,7.03
									l-8.045,3.982L0,30.938c0.062,0.032,1.014,1.469,1.078,1.5l4.188,3.188C6.101,36.043,12.266,39,12.266,39z"/>
							</g>
							<g>
								<defs>
									<path id="SVGID_3_" d="M12.266,39l6.562,2.812l6.273,2.174l0.498-0.248c0-2.088,0-4.174,0-6.262c0-2.017,0-4.031,0-6.046
										c0-2.252,0-4.505,0-6.757c0-2.178,0-4.356,0-6.535c-1.486,0.743,0,0,0,0l-0.673-0.337l-15.616,7.03l-8.045,3.982L0,30.938
										c0.062,0.032,1.014,1.469,1.078,1.5l4.188,3.188C6.101,36.043,12.266,39,12.266,39z"/>
								</defs>
								<defs>
									<path id="SVGID_4_" d="M12.266,39l6.562,2.812l6.273,2.174l0.498-0.248c0-2.088,0-4.174,0-6.262c0-2.017,0-4.031,0-6.046
										c0-2.252,0-4.505,0-6.757c0-2.178,0-4.356,0-6.535c-1.486,0.743,0,0,0,0l-0.673-0.337l-15.616,7.03l-8.045,3.982L0,30.938
										c0.062,0.032,1.014,1.469,1.078,1.5l4.188,3.188C6.101,36.043,12.266,39,12.266,39z"/>
								</defs>
								<clipPath id="SVGID_5_">
									<use xlink:href="#SVGID_3_"  overflow="visible"/>
								</clipPath>
								<clipPath id="SVGID_6_" clip-path="url(#SVGID_5_)">
									<use xlink:href="#SVGID_4_"  overflow="visible"/>
								</clipPath>
								
									<linearGradient id="SVGID_7_" gradientUnits="userSpaceOnUse" x1="-43.0388" y1="15.687" x2="-47.9138" y2="6.187" gradientTransform="matrix(1 0 0 -1 59 46.8682)">
									<stop  offset="0" style="stop-color:#C6C6C5;stop-opacity:0"/>
									<stop  offset="1" style="stop-color:#868686"/>
								</linearGradient>
								<path clip-path="url(#SVGID_6_)" fill="url(#SVGID_7_)" d="M5.113,33.495c2.812,1.406,5.625,2.812,8.438,4.219
									c2.531,1.267,5.062,2.529,7.592,3.795c1.486,0.744,2.974,1.486,4.459,2.23c0-2.088,0-4.174,0-6.262c0-2.016,0-4.031,0-6.046
									c0-2.252,0-4.505,0-6.757c0-2.178,0-4.356,0-6.535c-1.485,0.743-2.971,1.485-4.457,2.228
									c-2.528,1.265-5.058,2.529-7.586,3.793c-2.811,1.405-5.621,2.811-8.432,4.216c-0.871,0.436-1.742,0.871-2.613,1.307
									C1.675,30.101,0.838,30.52,0,30.938c0.062,0.032,0.127,0.063,0.189,0.095c0.807,0.403,1.611,0.806,2.417,1.209
									C3.443,32.661,4.278,33.079,5.113,33.495z"/>
								
									<linearGradient id="SVGID_8_" gradientUnits="userSpaceOnUse" x1="-42.1624" y1="15.2661" x2="-49.4124" y2="27.9536" gradientTransform="matrix(1 0 0 -1 59 46.8682)">
									<stop  offset="0" style="stop-color:#C6C6C5;stop-opacity:0"/>
									<stop  offset="1" style="stop-color:#868686"/>
								</linearGradient>
								<path clip-path="url(#SVGID_6_)" fill="url(#SVGID_8_)" d="M5.113,33.495c2.812,1.406,5.625,2.812,8.438,4.219
									c2.531,1.267,5.062,2.529,7.592,3.795c1.486,0.744,2.974,1.486,4.459,2.23c0-2.088,0-4.174,0-6.262c0-2.016,0-4.031,0-6.046
									c0-2.252,0-4.505,0-6.757c0-2.178,0-4.356,0-6.535c-1.485,0.743-2.971,1.485-4.457,2.228
									c-2.528,1.265-5.058,2.529-7.586,3.793c-2.811,1.405-5.621,2.811-8.432,4.216c-0.871,0.436-1.742,0.871-2.613,1.307
									C1.675,30.101,0.838,30.52,0,30.938c0.062,0.032,0.127,0.063,0.189,0.095c0.807,0.403,1.611,0.806,2.417,1.209
									C3.443,32.661,4.278,33.079,5.113,33.495z"/>
							</g>
							<path fill="#9C9B9B" d="M0,56.538l25.601-12.8L0,30.938V56.538z"/>
							<path fill="#C6C6C5" d="M0,5.338v25.6l25.601-12.8L0,5.338z"/>
						</g>
					</g>
				</g>
				<g>
					<g>
						<defs>
							<path id="SVGID_9_" d="M36.611,19.033c0.984-0.492,1.789,0.005,1.789,1.105v21.6c0,1.101-0.805,1.599-1.789,1.104
								L14.59,31.833c-0.984-0.492-0.984-1.297,0-1.789L36.611,19.033z"/>
						</defs>
						<clipPath id="SVGID_10_">
							<use xlink:href="#SVGID_9_"  overflow="visible"/>
						</clipPath>
						<g clip-path="url(#SVGID_10_)">
							<g>
								<path id="l" fill="#ED694B" d="M38.4,18.138c-3.423,1.711-6.845,3.422-10.267,5.133c-3.402,1.702-6.806,3.403-10.208,5.105
									c-1.708,0.854-3.417,1.709-5.125,2.563c1.704,0.852,3.408,1.704,5.112,2.556c3.404,1.703,6.81,3.406,10.215,5.107
									c3.424,1.713,6.848,3.424,10.271,5.137c0-4.266,0-8.531,0-12.797C38.4,26.674,38.4,22.406,38.4,18.138z"/>
							</g>
							<g>
								<defs>
									<path id="SVGID_11_" d="M38.4,18.138c-3.423,1.711-6.845,3.422-10.267,5.133c-3.402,1.702-6.806,3.403-10.208,5.105
										c-1.708,0.854-3.417,1.709-5.125,2.563c1.704,0.852,3.408,1.704,5.112,2.556c3.404,1.703,6.81,3.406,10.215,5.107
										c3.424,1.713,6.848,3.424,10.271,5.137c0-4.266,0-8.531,0-12.797C38.4,26.674,38.4,22.406,38.4,18.138z"/>
								</defs>
								<clipPath id="SVGID_12_">
									<use xlink:href="#SVGID_11_"  overflow="visible"/>
								</clipPath>
								
									<linearGradient id="SVGID_13_" gradientUnits="userSpaceOnUse" x1="-28.6804" y1="13.1807" x2="-45.2423" y2="0.3686" gradientTransform="matrix(1 0 0 -1 59 46.8682)">
									<stop  offset="0" style="stop-color:#FF6969"/>
									<stop  offset="1" style="stop-color:#FF5757"/>
								</linearGradient>
								<path clip-path="url(#SVGID_12_)" fill="url(#SVGID_13_)" d="M38.4,18.138c-3.423,1.711-6.845,3.422-10.267,5.133
									c-3.402,1.702-6.806,3.403-10.208,5.105c-1.708,0.854-3.417,1.709-5.125,2.563c1.704,0.852,3.408,1.704,5.112,2.556
									c3.404,1.703,6.81,3.406,10.215,5.107c3.424,1.713,6.848,3.424,10.271,5.137c0-4.266,0-8.531,0-12.797
									C38.4,26.674,38.4,22.406,38.4,18.138z"/>
							</g>
						</g>
					</g>
				</g>
			</g>
		</g>
	</g>
</g>
<g>
	<rect x="54.55" y="11.013" fill="none" width="90.833" height="39.851"/>
	<path d="M65.292,25.853l-4.021-5.701l-2.02,2.24v3.461h-3.161V11.85h3.161v6.361l5.821-6.361h3.661l-5.261,5.841l5.621,8.162
		H65.292z"/>
	<path d="M73.851,15.09v10.762H70.77V15.09H73.851z M73.811,12.03c0,0.88-0.62,1.54-1.5,1.54c-0.88,0-1.5-0.66-1.5-1.54
		c0-0.9,0.62-1.541,1.5-1.541C73.191,10.489,73.811,11.129,73.811,12.03z"/>
	<path d="M86.712,21.412H78.99c0.36,1.36,1.4,2.161,2.781,2.161c1.02,0,1.98-0.4,2.721-1.141l1.62,1.641
		c-1.08,1.2-2.661,1.9-4.601,1.9c-3.44,0-5.621-2.201-5.621-5.461c0-3.32,2.261-5.521,5.541-5.521
		C85.212,14.99,86.972,17.491,86.712,21.412z M83.831,19.591c-0.04-1.42-0.96-2.341-2.381-2.341c-1.36,0-2.28,0.92-2.521,2.341
		H83.831z"/>
	<path d="M95.391,14.97v2.9c-2.2-0.2-3.561,0.98-3.561,2.801v5.181H88.75V15.09h3.081v1.94C92.571,15.71,93.791,14.99,95.391,14.97z
		"/>
	<path d="M106.971,21.412H99.25c0.359,1.36,1.4,2.161,2.779,2.161c1.021,0,1.98-0.4,2.721-1.141l1.621,1.641
		c-1.08,1.2-2.66,1.9-4.602,1.9c-3.439,0-5.621-2.201-5.621-5.461c0-3.32,2.262-5.521,5.541-5.521
		C105.471,14.99,107.231,17.491,106.971,21.412z M104.09,19.591c-0.039-1.42-0.959-2.341-2.379-2.341
		c-1.361,0-2.281,0.92-2.521,2.341H104.09z"/>
	<path d="M119.752,19.091v6.761h-3.082v-5.861c0-1.36-0.799-2.2-2.119-2.2c-1.541,0.02-2.461,1.18-2.461,2.76v5.301h-3.08V15.09
		h3.08v1.88c0.76-1.34,2.041-1.98,3.721-2C118.211,14.97,119.752,16.571,119.752,19.091z"/>
	<path d="M65.332,47.131h-6.481l-1.1,2.721H54.49l6.082-14.003h3.26l5.981,14.003h-3.381L65.332,47.131z M64.312,44.591
		l-2.201-5.441l-2.22,5.441H64.312z"/>
	<path d="M81.952,43.09v6.762h-3.081v-5.861c0-1.36-0.8-2.2-2.121-2.2c-1.541,0.021-2.46,1.181-2.46,2.761v5.301H71.21V39.09h3.081
		v1.88c0.76-1.341,2.041-1.98,3.721-2.001C80.412,38.969,81.952,40.57,81.952,43.09z"/>
	<path d="M95.233,35.008v14.844h-3.061v-1.58c-0.761,1.1-1.921,1.7-3.401,1.7c-3.061,0-5.081-2.221-5.081-5.541
		c0-3.28,2-5.462,5.001-5.462c1.521,0,2.7,0.601,3.481,1.701v-5.662H95.233z M92.172,44.511c0-1.761-1.101-2.981-2.681-2.981
		c-1.6,0-2.701,1.24-2.721,2.981c0.02,1.76,1.101,2.98,2.721,2.98C91.072,47.492,92.172,46.271,92.172,44.511z"/>
	<path d="M104.951,38.969v2.9c-2.201-0.199-3.561,0.98-3.561,2.802v5.181h-3.08V39.09h3.08v1.939
		C102.131,39.709,103.352,38.99,104.951,38.969z"/>
	<path d="M116.531,45.411h-7.721c0.359,1.36,1.4,2.161,2.779,2.161c1.021,0,1.98-0.4,2.721-1.141l1.621,1.641
		c-1.08,1.2-2.66,1.9-4.602,1.9c-3.441,0-5.621-2.2-5.621-5.461c0-3.321,2.26-5.521,5.541-5.521
		C115.031,38.99,116.791,41.491,116.531,45.411z M113.651,43.59c-0.039-1.42-0.959-2.34-2.381-2.34c-1.359,0-2.279,0.92-2.52,2.34
		H113.651z"/>
	<path d="M119.811,39.09l2.4,7.701l2.32-7.701h3.02l2.361,7.701l2.359-7.701h3.041l-3.92,10.762h-3.082l-2.32-7.102l-2.299,7.102
		h-3.082L116.67,39.11L119.811,39.09z"/>
	<path d="M140.03,41.21c-0.721,0-1.24,0.239-1.24,0.8c0,1.62,5.682,0.801,5.662,4.602c0,2.2-1.941,3.36-4.381,3.36
		c-1.742,0-3.441-0.521-4.662-1.5l1-2.081c1.121,0.86,2.561,1.341,3.742,1.341c0.779,0,1.359-0.261,1.359-0.841
		c0-1.72-5.582-0.8-5.582-4.58c0-2.221,1.9-3.361,4.242-3.361c1.48,0,3,0.439,4.201,1.2l-1.061,2.101
		C142.129,41.59,140.93,41.21,140.03,41.21z"/>
</g>
</svg>
