<?xml version="1.0" encoding="utf-8"?>
<!-- Generator: Adobe Illustrator 16.0.0, SVG Export Plug-In . SVG Version: 6.00 Build 0)  -->
<!DOCTYPE svg PUBLIC "-//W3C//DTD SVG 1.1//EN" "http://www.w3.org/Graphics/SVG/1.1/DTD/svg11.dtd">
<svg version="1.1" id="Layer_1" xmlns="http://www.w3.org/2000/svg" xmlns:xlink="http://www.w3.org/1999/xlink" x="0px" y="0px"
	 width="179.766px" height="63.368px" viewBox="0 0 179.766 63.368" enable-background="new 0 0 179.766 63.368"
	 xml:space="preserve">
<g>
	<g>
		<g>
			<g>
				<path fill="none" d="M55.97,3.688h123.796v54.5H55.97V3.688z"/>
				<path fill="#1D1D1B" d="M63.298,13.784h0.864c0.8,0,1.376-0.25,1.728-0.752l5.248-7.616C71.426,5,71.754,4.717,72.122,4.568
					s0.818-0.224,1.352-0.224h4.704l-6.912,9.424c-0.246,0.342-0.501,0.624-0.768,0.848c-0.268,0.224-0.539,0.411-0.816,0.56
					c0.405,0.149,0.776,0.354,1.112,0.616c0.336,0.261,0.642,0.61,0.92,1.048l7.04,10.816h-4.832c-0.311,0-0.574-0.021-0.792-0.064
					c-0.219-0.042-0.408-0.106-0.568-0.192c-0.16-0.085-0.298-0.189-0.416-0.312c-0.117-0.123-0.229-0.264-0.336-0.424l-5.28-8.112
					c-0.191-0.298-0.435-0.509-0.728-0.632s-0.691-0.184-1.192-0.184h-1.312v9.92H57.89V4.344h5.408V13.784z"/>
				<path fill="#1D1D1B" d="M84.833,6.52c0,0.395-0.08,0.766-0.24,1.112c-0.16,0.346-0.379,0.651-0.656,0.912
					c-0.277,0.261-0.6,0.469-0.968,0.624C82.601,9.323,82.209,9.4,81.793,9.4c-0.406,0-0.784-0.077-1.136-0.232
					c-0.353-0.155-0.664-0.363-0.937-0.624c-0.271-0.261-0.485-0.565-0.64-0.912c-0.154-0.347-0.232-0.717-0.232-1.112
					c0-0.405,0.078-0.784,0.232-1.136c0.154-0.352,0.368-0.661,0.64-0.928c0.272-0.266,0.584-0.474,0.937-0.624
					c0.352-0.149,0.729-0.224,1.136-0.224c0.416,0,0.808,0.075,1.176,0.224c0.368,0.15,0.69,0.358,0.968,0.624
					c0.277,0.267,0.496,0.576,0.656,0.928C84.753,5.736,84.833,6.115,84.833,6.52z M84.257,11.064v16.592h-4.96V11.064H84.257z"/>
				<path fill="#1D1D1B" d="M93.761,10.808c1.099,0,2.104,0.171,3.017,0.512c0.913,0.341,1.695,0.837,2.353,1.488
					c0.656,0.651,1.168,1.448,1.536,2.392c0.368,0.944,0.552,2.014,0.552,3.208c0,0.374-0.016,0.678-0.048,0.912
					c-0.032,0.235-0.091,0.421-0.177,0.56c-0.085,0.139-0.199,0.235-0.345,0.288c-0.144,0.053-0.328,0.08-0.552,0.08h-9.568
					c0.16,1.387,0.581,2.392,1.265,3.016c0.682,0.624,1.562,0.936,2.64,0.936c0.576,0,1.072-0.069,1.488-0.208
					c0.416-0.139,0.786-0.293,1.112-0.464c0.323-0.17,0.623-0.325,0.896-0.464c0.273-0.139,0.558-0.208,0.856-0.208
					c0.395,0,0.692,0.144,0.896,0.432l1.44,1.776c-0.513,0.586-1.064,1.064-1.656,1.432s-1.2,0.656-1.824,0.864
					s-1.248,0.352-1.871,0.432c-0.625,0.08-1.219,0.12-1.785,0.12c-1.161,0-2.253-0.189-3.271-0.568
					c-1.02-0.378-1.91-0.941-2.672-1.688c-0.764-0.747-1.366-1.674-1.809-2.784c-0.442-1.109-0.664-2.4-0.664-3.872
					c0-1.109,0.189-2.16,0.568-3.152c0.378-0.992,0.922-1.861,1.632-2.608c0.709-0.747,1.568-1.338,2.576-1.776
					C91.353,11.026,92.491,10.808,93.761,10.808z M93.857,14.232c-0.949,0-1.69,0.27-2.225,0.808
					c-0.534,0.539-0.885,1.315-1.056,2.328h6.192c0-0.395-0.051-0.778-0.151-1.152c-0.102-0.374-0.269-0.707-0.496-1
					c-0.23-0.293-0.531-0.531-0.904-0.712C94.844,14.323,94.391,14.232,93.857,14.232z"/>
				<path fill="#1D1D1B" d="M102.465,27.656V11.064h2.943c0.245,0,0.45,0.021,0.616,0.064c0.164,0.042,0.305,0.109,0.416,0.2
					c0.111,0.091,0.197,0.211,0.256,0.36c0.06,0.149,0.109,0.331,0.152,0.544l0.271,1.552c0.606-0.938,1.291-1.68,2.048-2.224
					s1.584-0.816,2.479-0.816c0.758,0,1.365,0.182,1.824,0.544l-0.64,3.648c-0.043,0.224-0.128,0.382-0.256,0.472
					c-0.129,0.091-0.3,0.136-0.514,0.136c-0.182,0-0.395-0.024-0.64-0.072c-0.245-0.048-0.555-0.072-0.928-0.072
					c-1.303,0-2.325,0.693-3.072,2.08v10.176H102.465z"/>
				<path fill="#1D1D1B" d="M121.185,10.808c1.1,0,2.104,0.171,3.018,0.512c0.913,0.341,1.694,0.837,2.352,1.488
					c0.656,0.651,1.168,1.448,1.536,2.392c0.368,0.944,0.552,2.014,0.552,3.208c0,0.374-0.016,0.678-0.048,0.912
					c-0.032,0.235-0.091,0.421-0.177,0.56c-0.085,0.139-0.199,0.235-0.344,0.288c-0.145,0.053-0.328,0.08-0.553,0.08h-9.566
					c0.159,1.387,0.58,2.392,1.264,3.016c0.682,0.624,1.562,0.936,2.64,0.936c0.576,0,1.072-0.069,1.488-0.208
					c0.416-0.139,0.786-0.293,1.112-0.464c0.324-0.17,0.623-0.325,0.896-0.464c0.273-0.139,0.559-0.208,0.856-0.208
					c0.395,0,0.692,0.144,0.896,0.432l1.44,1.776c-0.512,0.586-1.064,1.064-1.656,1.432s-1.2,0.656-1.824,0.864
					s-1.248,0.352-1.871,0.432c-0.625,0.08-1.219,0.12-1.784,0.12c-1.162,0-2.253-0.189-3.271-0.568
					c-1.02-0.378-1.91-0.941-2.672-1.688c-0.764-0.747-1.365-1.674-1.809-2.784c-0.442-1.109-0.664-2.4-0.664-3.872
					c0-1.109,0.188-2.16,0.567-3.152c0.379-0.992,0.922-1.861,1.633-2.608c0.709-0.747,1.567-1.338,2.575-1.776
					C118.777,11.026,119.915,10.808,121.185,10.808L121.185,10.808z M121.281,14.232c-0.95,0-1.691,0.27-2.226,0.808
					c-0.533,0.539-0.885,1.315-1.057,2.328h6.192c0-0.395-0.051-0.778-0.151-1.152c-0.102-0.374-0.269-0.707-0.496-1
					c-0.23-0.293-0.531-0.531-0.904-0.712C122.267,14.323,121.814,14.232,121.281,14.232z"/>
				<path fill="#1D1D1B" d="M129.889,27.656V11.064h3.072c0.309,0,0.566,0.069,0.774,0.208s0.354,0.347,0.439,0.624l0.289,0.96
					c0.319-0.299,0.649-0.576,0.991-0.832c0.341-0.256,0.706-0.472,1.097-0.648c0.389-0.176,0.811-0.315,1.264-0.416
					c0.453-0.102,0.946-0.152,1.48-0.152c0.906,0,1.709,0.158,2.407,0.472c0.697,0.314,1.288,0.752,1.769,1.312
					c0.479,0.56,0.842,1.227,1.088,2c0.245,0.773,0.367,1.613,0.367,2.52v10.544h-4.959V17.112c0-0.811-0.188-1.442-0.561-1.896
					c-0.373-0.453-0.924-0.68-1.648-0.68c-0.543,0-1.056,0.118-1.535,0.352c-0.479,0.235-0.938,0.55-1.377,0.944v11.824H129.889z"/>
				<path fill="#1D1D1B" d="M79.586,57.657h-4.192c-0.469,0-0.855-0.109-1.16-0.328c-0.304-0.219-0.515-0.5-0.632-0.841
					l-1.376-4.063h-8.864l-1.376,4.063c-0.106,0.3-0.314,0.567-0.624,0.808s-0.688,0.361-1.136,0.361h-4.224l9.023-23.312h5.536
					L79.586,57.657z M64.61,48.745h6.368l-2.144-6.385c-0.14-0.404-0.301-0.883-0.488-1.432c-0.187-0.551-0.371-1.145-0.552-1.785
					c-0.171,0.65-0.348,1.254-0.528,1.809c-0.182,0.555-0.352,1.035-0.512,1.439L64.61,48.745z"/>
				<path fill="#1D1D1B" d="M79.874,57.657V41.064h3.071c0.31,0,0.568,0.069,0.776,0.208s0.354,0.348,0.44,0.624l0.288,0.96
					c0.319-0.299,0.649-0.576,0.991-0.832c0.343-0.256,0.707-0.473,1.097-0.648c0.389-0.176,0.811-0.313,1.264-0.416
					c0.453-0.102,0.946-0.151,1.48-0.151c0.905,0,1.709,0.157,2.407,0.474c0.699,0.312,1.288,0.752,1.769,1.311
					c0.479,0.561,0.844,1.228,1.088,2c0.246,0.773,0.369,1.613,0.369,2.521v10.544h-4.96V47.112c0-0.811-0.188-1.441-0.561-1.896
					c-0.374-0.452-0.923-0.68-1.647-0.68c-0.544,0-1.057,0.117-1.536,0.353c-0.48,0.235-0.938,0.551-1.376,0.944v11.824H79.874z"/>
				<path fill="#1D1D1B" d="M109.121,57.657c-0.311,0-0.568-0.07-0.775-0.209c-0.209-0.139-0.354-0.347-0.439-0.623l-0.385-1.266
					c-0.331,0.354-0.678,0.673-1.04,0.961c-0.361,0.287-0.755,0.535-1.177,0.744c-0.421,0.207-0.874,0.367-1.359,0.479
					c-0.484,0.112-1.011,0.168-1.575,0.168c-0.863,0-1.664-0.191-2.4-0.574c-0.735-0.385-1.37-0.939-1.903-1.664
					c-0.533-0.728-0.951-1.613-1.257-2.664c-0.303-1.051-0.455-2.248-0.455-3.594c0-1.236,0.17-2.386,0.513-3.447
					c0.342-1.061,0.823-1.979,1.446-2.752c0.625-0.773,1.374-1.379,2.248-1.815c0.875-0.438,1.841-0.655,2.896-0.655
					c0.854,0,1.576,0.125,2.168,0.375c0.592,0.252,1.129,0.58,1.607,0.984v-8.4h4.96v23.953H109.121z M104.098,54.104
					c0.362,0,0.689-0.035,0.983-0.104c0.294-0.07,0.562-0.17,0.808-0.297c0.246-0.129,0.479-0.289,0.697-0.48
					s0.434-0.416,0.646-0.672v-7.039c-0.384-0.416-0.792-0.707-1.224-0.873c-0.433-0.164-0.889-0.248-1.369-0.248
					c-0.458,0-0.879,0.092-1.264,0.271c-0.384,0.182-0.717,0.473-1,0.873c-0.283,0.399-0.504,0.92-0.664,1.561
					c-0.16,0.64-0.24,1.412-0.24,2.318c0,0.875,0.064,1.61,0.192,2.209c0.128,0.598,0.307,1.08,0.536,1.447
					c0.229,0.368,0.504,0.633,0.823,0.792C103.344,54.023,103.703,54.104,104.098,54.104z"/>
				<path fill="#1D1D1B" d="M114.433,57.657V41.064h2.944c0.245,0,0.45,0.021,0.615,0.063c0.166,0.043,0.305,0.108,0.416,0.199
					c0.111,0.092,0.196,0.211,0.256,0.36c0.059,0.149,0.108,0.33,0.151,0.544l0.272,1.553c0.607-0.939,1.29-1.681,2.048-2.226
					c0.758-0.543,1.584-0.815,2.48-0.815c0.757,0,1.364,0.182,1.823,0.545l-0.641,3.647c-0.043,0.224-0.128,0.381-0.256,0.472
					c-0.129,0.092-0.299,0.137-0.512,0.137c-0.183,0-0.396-0.023-0.642-0.072c-0.246-0.047-0.555-0.071-0.928-0.071
					c-1.302,0-2.326,0.692-3.072,2.08v10.177H114.433z"/>
				<path fill="#1D1D1B" d="M133.793,40.807c1.098,0,2.104,0.172,3.016,0.513s1.695,0.837,2.353,1.487
					c0.655,0.65,1.168,1.449,1.537,2.393c0.366,0.943,0.551,2.014,0.551,3.209c0,0.373-0.017,0.678-0.047,0.911
					c-0.033,0.235-0.093,0.421-0.178,0.56c-0.085,0.14-0.199,0.236-0.344,0.289c-0.144,0.054-0.328,0.08-0.552,0.08h-9.568
					c0.16,1.387,0.581,2.392,1.265,3.017c0.683,0.623,1.562,0.937,2.641,0.937c0.576,0,1.072-0.07,1.488-0.209
					s0.786-0.293,1.11-0.464c0.325-0.17,0.624-0.325,0.896-0.464c0.271-0.139,0.557-0.208,0.854-0.208
					c0.396,0,0.693,0.146,0.896,0.433l1.438,1.775c-0.512,0.587-1.063,1.062-1.655,1.432c-0.593,0.369-1.199,0.656-1.824,0.864
					c-0.623,0.208-1.248,0.353-1.871,0.433c-0.624,0.08-1.219,0.119-1.784,0.119c-1.163,0-2.253-0.188-3.271-0.566
					c-1.02-0.379-1.909-0.941-2.673-1.688c-0.763-0.748-1.364-1.676-1.808-2.785c-0.443-1.108-0.664-2.399-0.664-3.871
					c0-1.108,0.189-2.16,0.567-3.151c0.379-0.992,0.923-1.86,1.633-2.608c0.709-0.746,1.568-1.339,2.576-1.775
					C131.384,41.03,132.523,40.807,133.793,40.807L133.793,40.807z M133.889,44.232c-0.949,0-1.69,0.271-2.225,0.808
					c-0.533,0.539-0.886,1.314-1.057,2.328h6.192c0-0.395-0.051-0.777-0.152-1.152c-0.102-0.373-0.267-0.705-0.496-1
					c-0.229-0.293-0.53-0.529-0.903-0.711S134.422,44.232,133.889,44.232z"/>
				<path fill="#1D1D1B" d="M140.576,41.064h3.968c0.353,0,0.656,0.079,0.912,0.239c0.257,0.16,0.411,0.369,0.464,0.625l1.664,7.439
					c0.129,0.564,0.246,1.114,0.352,1.647c0.107,0.532,0.203,1.062,0.289,1.584c0.148-0.522,0.308-1.05,0.473-1.576
					c0.164-0.528,0.327-1.08,0.486-1.655l2.08-7.457c0.064-0.244,0.219-0.449,0.465-0.615c0.245-0.166,0.527-0.248,0.849-0.248
					h2.208c0.353,0,0.652,0.082,0.902,0.248c0.251,0.166,0.408,0.371,0.474,0.615l1.983,7.457c0.148,0.564,0.301,1.114,0.455,1.647
					c0.155,0.532,0.302,1.071,0.44,1.614c0.085-0.532,0.188-1.062,0.312-1.592c0.123-0.527,0.254-1.084,0.394-1.672l1.76-7.439
					c0.054-0.256,0.205-0.465,0.456-0.625c0.251-0.159,0.536-0.238,0.855-0.238h3.775l-5.152,16.592h-4.03
					c-0.214,0-0.396-0.062-0.544-0.191c-0.149-0.127-0.268-0.342-0.354-0.641l-2.367-8.271c-0.106-0.373-0.209-0.74-0.305-1.104
					s-0.182-0.726-0.256-1.089c-0.074,0.373-0.157,0.744-0.248,1.11c-0.09,0.369-0.194,0.74-0.312,1.113l-2.399,8.24
					c-0.159,0.555-0.513,0.831-1.057,0.831h-3.84L140.576,41.064z"/>
				<path fill="#1D1D1B" d="M177.695,44.696c-0.127,0.203-0.264,0.348-0.407,0.432c-0.144,0.086-0.327,0.129-0.552,0.129
					c-0.234,0-0.471-0.051-0.704-0.151c-0.234-0.101-0.487-0.211-0.761-0.328c-0.271-0.116-0.578-0.228-0.92-0.327
					c-0.342-0.102-0.729-0.152-1.168-0.152c-0.629,0-1.11,0.119-1.447,0.359c-0.336,0.24-0.504,0.573-0.504,1
					c0,0.311,0.109,0.565,0.328,0.77c0.218,0.201,0.508,0.381,0.871,0.535s0.773,0.302,1.232,0.439
					c0.459,0.139,0.928,0.294,1.407,0.465c0.479,0.17,0.949,0.37,1.408,0.6c0.458,0.229,0.869,0.512,1.231,0.848
					c0.362,0.337,0.652,0.744,0.872,1.225c0.219,0.481,0.328,1.057,0.328,1.729c0,0.821-0.15,1.577-0.448,2.271
					c-0.299,0.693-0.744,1.291-1.336,1.793c-0.593,0.5-1.323,0.892-2.192,1.168s-1.869,0.416-3,0.416
					c-0.564,0-1.131-0.055-1.694-0.16c-0.566-0.106-1.112-0.25-1.642-0.432c-0.527-0.182-1.016-0.398-1.464-0.648
					s-0.832-0.521-1.151-0.809l1.151-1.824c0.139-0.213,0.304-0.381,0.496-0.504c0.191-0.123,0.441-0.184,0.752-0.184
					c0.288,0,0.546,0.062,0.776,0.191c0.229,0.129,0.477,0.268,0.743,0.416c0.267,0.149,0.578,0.287,0.937,0.416
					c0.356,0.129,0.809,0.191,1.352,0.191c0.386,0,0.709-0.04,0.978-0.119c0.267-0.08,0.479-0.189,0.64-0.328
					c0.16-0.14,0.277-0.293,0.354-0.465c0.073-0.171,0.11-0.347,0.11-0.527c0-0.33-0.11-0.603-0.336-0.816
					c-0.224-0.213-0.518-0.396-0.88-0.551c-0.362-0.155-0.776-0.299-1.239-0.434c-0.465-0.134-0.937-0.285-1.416-0.455
					s-0.953-0.377-1.416-0.615c-0.465-0.24-0.878-0.545-1.239-0.912c-0.363-0.369-0.656-0.818-0.882-1.354
					c-0.224-0.533-0.336-1.179-0.336-1.937c0-0.703,0.138-1.373,0.408-2.009c0.272-0.635,0.681-1.19,1.226-1.672
					c0.543-0.479,1.227-0.86,2.048-1.144c0.82-0.282,1.781-0.425,2.88-0.425c0.598,0,1.176,0.055,1.736,0.16
					c0.56,0.107,1.085,0.256,1.575,0.447c0.49,0.192,0.938,0.42,1.345,0.682c0.403,0.262,0.762,0.547,1.071,0.855L177.695,44.696z"
					/>
			</g>
			<g>
				<g>
					<defs>
						<path id="SVGID_1_" d="M1.789,6.233C0.805,5.741,0,6.238,0,7.338v47.2c0,1.1,0.805,1.598,1.789,1.104l22.021-11.011
							c0.984-0.492,1.789-1.795,1.789-2.896V33.43c0-1.1,0-2.899,0-4v-9.292c0-1.1-0.805-2.402-1.789-2.895L1.789,6.233z"/>
					</defs>
					<clipPath id="SVGID_2_">
						<use xlink:href="#SVGID_1_"  overflow="visible"/>
					</clipPath>
					<g clip-path="url(#SVGID_2_)">
						<g>
							<g>
								<path id="j" fill="#C6C6C5" d="M12.266,39l6.562,2.812l6.273,2.174l0.498-0.248c0-2.088,0-4.174,0-6.262
									c0-2.017,0-4.031,0-6.046c0-2.252,0-4.505,0-6.757c0-2.178,0-4.356,0-6.535c-1.486,0.743,0,0,0,0l-0.673-0.337l-15.616,7.03
									l-8.045,3.982L0,30.938c0.062,0.032,1.014,1.469,1.078,1.5l4.188,3.188C6.101,36.043,12.266,39,12.266,39z"/>
							</g>
							<g>
								<defs>
									<path id="SVGID_3_" d="M12.266,39l6.562,2.812l6.273,2.174l0.498-0.248c0-2.088,0-4.174,0-6.262c0-2.017,0-4.031,0-6.046
										c0-2.252,0-4.505,0-6.757c0-2.178,0-4.356,0-6.535c-1.486,0.743,0,0,0,0l-0.673-0.337l-15.616,7.03l-8.045,3.982L0,30.938
										c0.062,0.032,1.014,1.469,1.078,1.5l4.188,3.188C6.101,36.043,12.266,39,12.266,39z"/>
								</defs>
								<defs>
									<path id="SVGID_4_" d="M12.266,39l6.562,2.812l6.273,2.174l0.498-0.248c0-2.088,0-4.174,0-6.262c0-2.017,0-4.031,0-6.046
										c0-2.252,0-4.505,0-6.757c0-2.178,0-4.356,0-6.535c-1.486,0.743,0,0,0,0l-0.673-0.337l-15.616,7.03l-8.045,3.982L0,30.938
										c0.062,0.032,1.014,1.469,1.078,1.5l4.188,3.188C6.101,36.043,12.266,39,12.266,39z"/>
								</defs>
								<clipPath id="SVGID_5_">
									<use xlink:href="#SVGID_3_"  overflow="visible"/>
								</clipPath>
								<clipPath id="SVGID_6_" clip-path="url(#SVGID_5_)">
									<use xlink:href="#SVGID_4_"  overflow="visible"/>
								</clipPath>
								
									<linearGradient id="SVGID_7_" gradientUnits="userSpaceOnUse" x1="-43.0388" y1="15.687" x2="-47.9138" y2="6.187" gradientTransform="matrix(1 0 0 -1 59 46.8682)">
									<stop  offset="0" style="stop-color:#C6C6C5;stop-opacity:0"/>
									<stop  offset="1" style="stop-color:#868686"/>
								</linearGradient>
								<path clip-path="url(#SVGID_6_)" fill="url(#SVGID_7_)" d="M5.113,33.495c2.812,1.406,5.625,2.812,8.438,4.219
									c2.531,1.267,5.062,2.529,7.592,3.795c1.486,0.744,2.974,1.486,4.459,2.23c0-2.088,0-4.174,0-6.262c0-2.016,0-4.031,0-6.046
									c0-2.252,0-4.505,0-6.757c0-2.178,0-4.356,0-6.535c-1.485,0.743-2.971,1.485-4.457,2.228
									c-2.528,1.265-5.058,2.529-7.586,3.793c-2.811,1.405-5.621,2.811-8.432,4.216c-0.871,0.436-1.742,0.871-2.613,1.307
									C1.675,30.101,0.838,30.52,0,30.938c0.062,0.032,0.127,0.063,0.189,0.095c0.807,0.403,1.611,0.806,2.417,1.209
									C3.443,32.661,4.278,33.079,5.113,33.495z"/>
								
									<linearGradient id="SVGID_8_" gradientUnits="userSpaceOnUse" x1="-42.1624" y1="15.2661" x2="-49.4124" y2="27.9536" gradientTransform="matrix(1 0 0 -1 59 46.8682)">
									<stop  offset="0" style="stop-color:#C6C6C5;stop-opacity:0"/>
									<stop  offset="1" style="stop-color:#868686"/>
								</linearGradient>
								<path clip-path="url(#SVGID_6_)" fill="url(#SVGID_8_)" d="M5.113,33.495c2.812,1.406,5.625,2.812,8.438,4.219
									c2.531,1.267,5.062,2.529,7.592,3.795c1.486,0.744,2.974,1.486,4.459,2.23c0-2.088,0-4.174,0-6.262c0-2.016,0-4.031,0-6.046
									c0-2.252,0-4.505,0-6.757c0-2.178,0-4.356,0-6.535c-1.485,0.743-2.971,1.485-4.457,2.228
									c-2.528,1.265-5.058,2.529-7.586,3.793c-2.811,1.405-5.621,2.811-8.432,4.216c-0.871,0.436-1.742,0.871-2.613,1.307
									C1.675,30.101,0.838,30.52,0,30.938c0.062,0.032,0.127,0.063,0.189,0.095c0.807,0.403,1.611,0.806,2.417,1.209
									C3.443,32.661,4.278,33.079,5.113,33.495z"/>
							</g>
							<path fill="#9C9B9B" d="M0,56.538l25.601-12.8L0,30.938V56.538z"/>
							<path fill="#C6C6C5" d="M0,5.338v25.6l25.601-12.8L0,5.338z"/>
						</g>
					</g>
				</g>
				<g>
					<g>
						<defs>
							<path id="SVGID_9_" d="M36.611,19.033c0.984-0.492,1.789,0.005,1.789,1.105v21.6c0,1.101-0.805,1.599-1.789,1.104
								L14.59,31.833c-0.984-0.492-0.984-1.297,0-1.789L36.611,19.033z"/>
						</defs>
						<clipPath id="SVGID_10_">
							<use xlink:href="#SVGID_9_"  overflow="visible"/>
						</clipPath>
						<g clip-path="url(#SVGID_10_)">
							<g>
								<path id="l" fill="#ED694B" d="M38.4,18.138c-3.423,1.711-6.845,3.422-10.267,5.133c-3.402,1.702-6.806,3.403-10.208,5.105
									c-1.708,0.854-3.417,1.709-5.125,2.563c1.704,0.852,3.408,1.704,5.112,2.556c3.404,1.703,6.81,3.406,10.215,5.107
									c3.424,1.713,6.848,3.424,10.271,5.137c0-4.266,0-8.531,0-12.797C38.4,26.674,38.4,22.406,38.4,18.138z"/>
							</g>
							<g>
								<defs>
									<path id="SVGID_11_" d="M38.4,18.138c-3.423,1.711-6.845,3.422-10.267,5.133c-3.402,1.702-6.806,3.403-10.208,5.105
										c-1.708,0.854-3.417,1.709-5.125,2.563c1.704,0.852,3.408,1.704,5.112,2.556c3.404,1.703,6.81,3.406,10.215,5.107
										c3.424,1.713,6.848,3.424,10.271,5.137c0-4.266,0-8.531,0-12.797C38.4,26.674,38.4,22.406,38.4,18.138z"/>
								</defs>
								<clipPath id="SVGID_12_">
									<use xlink:href="#SVGID_11_"  overflow="visible"/>
								</clipPath>
								
									<linearGradient id="SVGID_13_" gradientUnits="userSpaceOnUse" x1="-28.6804" y1="13.1807" x2="-45.2423" y2="0.3686" gradientTransform="matrix(1 0 0 -1 59 46.8682)">
									<stop  offset="0" style="stop-color:#FF6969"/>
									<stop  offset="1" style="stop-color:#FF5757"/>
								</linearGradient>
								<path clip-path="url(#SVGID_12_)" fill="url(#SVGID_13_)" d="M38.4,18.138c-3.423,1.711-6.845,3.422-10.267,5.133
									c-3.402,1.702-6.806,3.403-10.208,5.105c-1.708,0.854-3.417,1.709-5.125,2.563c1.704,0.852,3.408,1.704,5.112,2.556
									c3.404,1.703,6.81,3.406,10.215,5.107c3.424,1.713,6.848,3.424,10.271,5.137c0-4.266,0-8.531,0-12.797
									C38.4,26.674,38.4,22.406,38.4,18.138z"/>
							</g>
						</g>
					</g>
				</g>
			</g>
		</g>
	</g>
</g>
</svg>
