<?xml version="1.0" encoding="utf-8"?>
<!-- Generator: Adobe Illustrator 21.0.0, SVG Export Plug-In . SVG Version: 6.00 Build 0)  -->
<svg version="1.1" id="Layer_1" xmlns="http://www.w3.org/2000/svg" xmlns:xlink="http://www.w3.org/1999/xlink" x="0px" y="0px"
	 viewBox="0 0 232.9 127.4" style="enable-background:new 0 0 232.9 127.4;" xml:space="preserve">
<style type="text/css">
	.st0{fill:none;}
	.st1{fill:#E6E7E8;}
	.st2{font-family:'Montserrat-Thin';}
	.st3{font-size:120px;}
	.st4{letter-spacing:-16;}
	.st5{letter-spacing:-21;}
	.st6{fill:#547DBF;}
	.st7{fill:#32A850;}
	.st8{fill:#F7BC17;}
	.st9{fill:#EA4435;}
	.st10{fill:#F1F2F2;}
</style>
<g>
	<rect x="17" y="12.9" class="st0" width="215.9" height="94.7"/>
	<text transform="matrix(1 0 0 1 64.1938 101.9403)"><tspan x="0" y="0" class="st1 st2 st3 st4">k</tspan><tspan x="47.6" y="0" class="st1 st2 st3 st5">j</tspan><tspan x="54.1" y="0" class="st1 st2 st3 st4">a</tspan></text>
	<rect y="12.9" class="st0" width="215.9" height="94.7"/>
	<text transform="matrix(1 0 0 1 47.186 101.9403)"><tspan x="0" y="0" class="st6 st2 st3 st4">k</tspan><tspan x="47.6" y="0" class="st6 st2 st3 st5">j</tspan><tspan x="54.1" y="0" class="st6 st2 st3 st4">a</tspan></text>
	<rect x="4.3" y="12.9" class="st0" width="215.9" height="94.7"/>
	<text transform="matrix(1 0 0 1 51.4379 101.9403)"><tspan x="0" y="0" class="st7 st2 st3 st4">k</tspan><tspan x="47.6" y="0" class="st7 st2 st3 st5">j</tspan><tspan x="54.1" y="0" class="st7 st2 st3 st4">a</tspan></text>
	<rect x="8.5" y="12.9" class="st0" width="215.9" height="94.7"/>
	<text transform="matrix(1 0 0 1 55.6899 101.9403)"><tspan x="0" y="0" class="st8 st2 st3 st4">k</tspan><tspan x="47.6" y="0" class="st8 st2 st3 st5">j</tspan><tspan x="54.1" y="0" class="st8 st2 st3 st4">a</tspan></text>
	<rect x="12.8" y="12.9" class="st0" width="215.9" height="94.7"/>
	<text transform="matrix(1 0 0 1 59.9419 101.9403)"><tspan x="0" y="0" class="st9 st2 st3 st4">k</tspan><tspan x="47.6" y="0" class="st9 st2 st3 st5">j</tspan><tspan x="54.1" y="0" class="st9 st2 st3 st4">a</tspan></text>
	<rect x="17" y="12.9" class="st0" width="215.9" height="94.7"/>
	<text transform="matrix(1 0 0 1 64.1938 101.9403)"><tspan x="0" y="0" class="st10 st2 st3 st4">k</tspan><tspan x="47.6" y="0" class="st10 st2 st3 st5">j</tspan><tspan x="54.1" y="0" class="st10 st2 st3 st4">a</tspan></text>
</g>
</svg>
