<?xml version="1.0" encoding="utf-8"?>
<!-- Generator: Adobe Illustrator 21.0.0, SVG Export Plug-In . SVG Version: 6.00 Build 0)  -->
<svg version="1.1" id="Layer_1" xmlns="http://www.w3.org/2000/svg" xmlns:xlink="http://www.w3.org/1999/xlink" x="0px" y="0px"
	 viewBox="0 0 458.5 97" style="enable-background:new 0 0 458.5 97;" xml:space="preserve">
<style type="text/css">
	.st0{fill:none;stroke:#000000;stroke-width:5;stroke-miterlimit:10;}
	.st1{enable-background:new    ;}
</style>
<title>kja-logo-new</title>
<rect x="2.5" y="2.5" class="st0" width="453.5" height="92"/>
<g class="st1">
	<path d="M76.2,69.7l-2.6,2.7v7.1H65V43.9h8.5v18.4l8.3-8.8h9.7l-9.5,10l9.7,15.9H81.7L76.2,69.7z"/>
	<path d="M103.6,53.5v26h-8.5v-26H103.6z M103.3,46.2c0,2.3-1.6,3.9-3.9,3.9s-3.9-1.6-3.9-3.9c0-2.3,1.6-3.9,3.9-3.9
		S103.3,43.9,103.3,46.2z"/>
	<path d="M134.7,68.8h-18c0.8,2.9,3,4.6,5.9,4.6c2.2,0,4.4-0.9,6.1-2.6l4.5,4.5c-2.6,3-6.5,4.6-11.3,4.6c-8.5,0-13.7-5.2-13.7-13.2
		c0-8.1,5.4-13.4,13.5-13.4C130.7,53.2,135.3,59.3,134.7,68.8z M126.4,64.2c0-3-1.9-5-4.8-5c-2.8,0-4.6,2-5.2,5H126.4z"/>
	<path d="M156,53.2V61c-4.8-0.5-7.9,1.6-8.4,5.2v13.2h-8.5v-26h8.5v4.3C149.4,54.9,152.4,53.2,156,53.2z"/>
	<path d="M184.3,68.8h-18c0.8,2.9,3,4.6,5.9,4.6c2.2,0,4.4-0.9,6.1-2.6l4.5,4.5c-2.6,3-6.5,4.6-11.3,4.6c-8.5,0-13.7-5.2-13.7-13.2
		c0-8.1,5.4-13.4,13.5-13.4C180.3,53.2,184.9,59.3,184.3,68.8z M176,64.2c0-3-1.9-5-4.8-5c-2.8,0-4.6,2-5.2,5H176z"/>
	<path d="M215.2,63.1v16.4h-8.5V65.6c0-2.9-1.7-4.8-4.4-4.8c-2.9,0-4.8,2-5.1,4.9v13.7h-8.5v-26h8.5v4.2c1.8-3,4.8-4.6,8.6-4.6
		C211.5,53.2,215.2,57,215.2,63.1z"/>
	<path d="M220.2,89.1c-2.4,0-4.8-0.6-6.6-1.6l2.2-6.1c0.9,0.6,1.9,0.9,2.9,0.9c1.5,0,2.5-0.9,2.5-2.8v-26h8.5v26.7
		C229.7,86,225.6,89.2,220.2,89.1z M230.2,46.1c0,2.6-2,4.6-4.8,4.6c-2.8,0-4.8-1.9-4.8-4.6c0-2.7,2-4.6,4.8-4.6
		C228.3,41.6,230.2,43.4,230.2,46.1z"/>
	<path d="M259.6,62.6v16.9h-8.4v-2.9c-1.7,2.2-4.3,3.3-7.8,3.3c-5.6,0-8.9-3.4-8.9-8.1c0-4.9,3.5-7.8,9.9-7.9h6.8v-0.3
		c0-2.4-1.7-3.9-4.9-3.9c-2.2,0-5,0.7-7.8,2.1l-2.4-5.8c4.1-1.8,7.8-2.8,12.1-2.8C255.4,53.2,259.5,56.7,259.6,62.6z M251.2,70.7
		v-2.3h-5.1c-2.4,0-3.6,0.9-3.6,2.7c0,1.8,1.3,2.9,3.5,2.9C248.6,74.1,250.7,72.7,251.2,70.7z"/>
	<path d="M291.9,63.1v16.4h-8.5V65.6c0-2.9-1.7-4.8-4.4-4.8c-2.9,0-4.8,2-5.1,4.9v13.7h-8.5v-26h8.5v4.2c1.8-3,4.8-4.6,8.6-4.6
		C288.2,53.2,291.9,57,291.9,63.1z"/>
	<path d="M323.9,43.9v35.6h-8.5v-3.4c-1.8,2.4-4.4,3.7-7.7,3.7c-7.3,0-12.1-5.4-12.1-13.4c0-7.9,4.8-13.2,11.9-13.2
		c3.4,0,6,1.3,7.9,3.7V43.9H323.9z M315.4,66.6c0-3.9-2.3-6.5-5.6-6.5c-3.4,0-5.6,2.6-5.6,6.5c0,3.8,2.3,6.5,5.6,6.5
		C313.1,73.1,315.4,70.5,315.4,66.6z"/>
	<path d="M347.6,53.2V61c-4.8-0.5-7.9,1.6-8.4,5.2v13.2h-8.5v-26h8.5v4.3C341,54.9,343.9,53.2,347.6,53.2z"/>
</g>
<g class="st1">
	<path d="M371.3,68.8h-18c0.8,2.9,3,4.6,5.9,4.6c2.2,0,4.4-0.9,6.1-2.6l4.5,4.5c-2.6,3-6.5,4.6-11.3,4.6c-8.5,0-13.7-5.2-13.7-13.2
		c0-8.1,5.4-13.4,13.5-13.4C367.3,53.2,371.9,59.3,371.3,68.8z M363.1,64.2c0-3-1.9-5-4.8-5c-2.8,0-4.6,2-5.2,5H363.1z"/>
</g>
<g class="st1">
	<path d="M379.8,53.5l5.2,17.6l5.1-17.6h8.2l5.1,17.6l5.2-17.6h8.4l-9.5,26h-8.4l-4.9-16l-5,16h-8.4l-9.5-26H379.8z"/>
</g>
<g class="st1">
	<path d="M427.6,59.1c-1.4,0-2.4,0.5-2.4,1.6c0,3.4,13.6,1.8,13.6,10.8c0,5.3-4.7,8.4-11,8.4c-4.4,0-8.5-1.2-11.7-3.7l2.7-5.5
		c3,2.1,6.3,3.2,9.2,3.2c1.6,0,2.7-0.5,2.7-1.6c0-3.6-13.4-1.8-13.4-10.8c0-5.4,4.6-8.4,10.7-8.4c3.7,0,7.5,1.1,10.8,3l-2.9,5.6
		C432.7,60.1,429.7,59.1,427.6,59.1z"/>
	<path d="M450.1,75.7c0,2.4-1.7,4.2-4.1,4.2s-4.1-1.7-4.1-4.2s1.7-4.1,4.1-4.1S450.1,73.3,450.1,75.7z"/>
</g>
</svg>
